<svg width="82" height="21" fill="none" xmlns="http://www.w3.org/2000/svg"><path d="M31.92 9.421c1.448 0 2.093.934 2.308 1.77l2.034-.739c-.391-1.517-1.799-3.111-4.36-3.111-2.738 0-4.87 2.1-4.87 5.017 0 2.878 2.132 5.037 4.928 5.037 2.503 0 3.93-1.614 4.38-3.092l-1.994-.72c-.215.72-.9 1.75-2.386 1.75-1.428 0-2.66-1.07-2.66-2.975 0-1.906 1.232-2.937 2.62-2.937Zm7.921 2.12c.04-1.205.724-2.139 1.975-2.139 1.428 0 1.956.934 1.956 2.1v5.601h2.268v-5.99c0-2.08-1.134-3.753-3.48-3.753-.998 0-2.074.35-2.719 1.187V3.023h-2.268v14.08h2.268v-5.562Zm7.592 2.995c0 1.498 1.232 2.859 3.226 2.859 1.545 0 2.484-.778 2.934-1.497 0 .758.078 1.147.097 1.205h2.112c-.02-.097-.117-.661-.117-1.517V10.88c0-1.886-1.115-3.54-4.048-3.54-2.347 0-3.833 1.46-4.009 3.093l2.073.466c.098-.952.763-1.71 1.956-1.71 1.251 0 1.799.64 1.799 1.438 0 .33-.157.603-.704.68l-2.445.37c-1.623.234-2.874 1.167-2.874 2.86Zm3.656 1.09c-.9 0-1.388-.584-1.388-1.226 0-.778.567-1.167 1.271-1.284l2.484-.369v.428c0 1.847-1.096 2.45-2.367 2.45Zm15.473-7.994h-3.011l-3.657 3.832v-8.44h-2.25v14.08h2.25v-2.645l1.173-1.226 2.796 3.87h2.777l-3.989-5.464 3.911-4.007Zm6.511-.058a3.265 3.265 0 0 0-.606-.058c-1.252 0-2.308.602-2.758 1.633V7.632H67.5v9.471h2.269v-4.512c0-1.77.802-2.78 2.562-2.78.234 0 .489.019.743.058V7.574Zm.544 6.962c0 1.498 1.231 2.859 3.226 2.859 1.545 0 2.484-.778 2.933-1.497 0 .758.079 1.147.098 1.205h2.112c-.02-.097-.117-.661-.117-1.517V10.88c0-1.886-1.115-3.54-4.048-3.54-2.347 0-3.833 1.46-4.009 3.093l2.073.466c.098-.952.763-1.71 1.956-1.71 1.251 0 1.799.64 1.799 1.438 0 .33-.157.603-.704.68l-2.445.37c-1.623.234-2.874 1.167-2.874 2.86Zm3.656 1.09c-.9 0-1.388-.584-1.388-1.226 0-.778.567-1.167 1.271-1.284l2.483-.369v.428c0 1.847-1.094 2.45-2.366 2.45ZM21.116 10.5C21.116 4.701 16.39 0 10.558 0 4.727 0 0 4.701 0 10.5S4.727 21 10.558 21c5.831 0 10.558-4.701 10.558-10.5Z" fill="#fff"/><path d="m5.715 10.948 7.197-7.108c.135-.133.351.03.26.194l-2.678 4.883a.163.163 0 0 0 .144.242h4.629c.149 0 .221.181.112.283L7.267 16.97c-.145.135-.362-.056-.245-.216l3.84-5.268a.163.163 0 0 0-.133-.26H5.83a.163.163 0 0 1-.116-.279Z" fill="#3182CE"/></svg>